<svg xmlns="http://www.w3.org/2000/svg" xmlns:osb="http://www.openswatchbook.org/uri/2009/osb" xmlns:svg="http://www.w3.org/2000/svg" id="svg5364" width="1234.253" height="412.598" version="1.1"><defs id="defs5366"><linearGradient id="linearGradient8030" osb:paint="solid"><stop id="stop8032" offset="0" style="stop-color:#000;stop-opacity:1"/></linearGradient><linearGradient id="linearGradient8014" osb:paint="gradient"><stop id="stop8016" offset="0" style="stop-color:#303030;stop-opacity:1"/><stop style="stop-color:#303030;stop-opacity:.74901961" id="stop8026" offset=".25"/><stop style="stop-color:#303030;stop-opacity:.49803922" id="stop8024" offset="1"/><stop id="stop8018" offset="1" style="stop-color:#303030;stop-opacity:0"/></linearGradient><linearGradient id="linearGradient6569" osb:paint="gradient"><stop id="stop6571" offset="0" style="stop-color:#fff;stop-opacity:1"/><stop id="stop6573" offset="1" style="stop-color:#fff;stop-opacity:0"/></linearGradient><marker style="overflow:visible" id="TriangleInL" orient="auto" refX="0" refY="0"><path style="fill-rule:evenodd;stroke:#000;stroke-width:1pt" id="path3917" d="m 5.77,0 -8.65,5 0,-10 8.65,5 z" transform="scale(-0.8,-0.8)"/></marker><marker style="overflow:visible" id="Arrow1Lend" orient="auto" refX="0" refY="0"><path style="fill-rule:evenodd;stroke:#000;stroke-width:1pt" id="path3787" d="M 0,0 5,-5 -12.5,0 5,5 0,0 z" transform="matrix(-0.8,0,0,-0.8,-10,0)"/></marker><filter id="filter8079" width="1.5" height="1.5" x="-.25" y="-.25" color-interpolation-filters="sRGB"><feBlend id="feBlend8081" in2="SourceGraphic" mode="screen" result="result1"/><feGaussianBlur id="feGaussianBlur8083" result="result6" stdDeviation="7"/><feComposite id="feComposite8085" in="result6" in2="result6" operator="xor" result="result7"/><feComposite id="feComposite8087" in="result6" in2="result1" operator="atop" result="result92"/><feComposite id="feComposite8089" in="result7" in2="result92" operator="xor" result="result4"/><feGaussianBlur id="feGaussianBlur8091" in="result4" result="result3" stdDeviation=".7"/><feSpecularLighting id="feSpecularLighting8093" result="result5" specularConstant="1.5" specularExponent="50" surfaceScale="4"><fePointLight id="fePointLight8095" x="-5000" y="-8000" z="20000"/></feSpecularLighting><feComposite id="feComposite8097" in="result3" in2="SourceGraphic" k1="0" k2="1" k3="1" k4="0" operator="arithmetic" result="result93"/><feComposite id="feComposite8099" in="result5" in2="result93" operator="atop" result="result94"/><feBlend id="feBlend8101" in2="result94" mode="multiply"/></filter></defs><metadata id="metadata5369"/><g id="layer1" transform="translate(65.339231,8.0071442)"><g style="fill:#c83737" id="labstate_closed" transform="matrix(0.76041596,0,0,0.76041596,8.3041674,72.982615)"><path style="font-size:medium;font-style:normal;font-variant:normal;font-weight:400;font-stretch:normal;text-indent:0;text-align:start;text-decoration:none;line-height:normal;letter-spacing:normal;word-spacing:normal;text-transform:none;direction:ltr;block-progression:tb;writing-mode:lr-tb;text-anchor:start;baseline-shift:baseline;color:#000;fill:#c83737;fill-opacity:1;stroke:none;stroke-width:29.74740791;marker:none;visibility:visible;display:inline;overflow:visible;enable-background:accumulate;font-family:Sans;-inkscape-font-specification:Sans" id="path3941-4" d="m 174.4614,24.999822 0,44.111555 c 53.10822,0 95.68905,42.580763 95.68905,95.689053 0,53.10828 -42.58083,95.6695 -95.68905,95.6695 -53.1083,0 -95.728134,-42.56122 -95.728134,-95.6695 l -44.072497,0 c 0,76.94546 62.855131,139.78109 139.800631,139.78109 76.94543,0 139.78106,-62.83563 139.78106,-139.78109 0,-76.945487 -62.83563,-139.800608 -139.78106,-139.800608 z"/><path style="font-size:medium;font-style:normal;font-variant:normal;font-weight:400;font-stretch:normal;text-indent:0;text-align:start;text-decoration:none;line-height:normal;letter-spacing:normal;word-spacing:normal;text-transform:none;direction:ltr;block-progression:tb;writing-mode:lr-tb;text-anchor:start;baseline-shift:baseline;color:#000;fill:#c83737;fill-opacity:1;fill-rule:nonzero;stroke:none;stroke-width:44;marker:none;visibility:visible;display:inline;overflow:visible;enable-background:accumulate;font-family:Sans;-inkscape-font-specification:Sans" id="path3048" d="M 93.5625,52.78125 62.4375,83.875 158.90625,180.34375 190,149.21875 93.5625,52.78125 z"/></g><g id="labstate_open" transform="translate(-0.00927734,0)"><path style="font-size:medium;font-style:normal;font-variant:normal;font-weight:400;font-stretch:normal;text-indent:0;text-align:start;text-decoration:none;line-height:normal;letter-spacing:normal;word-spacing:normal;text-transform:none;direction:ltr;block-progression:tb;writing-mode:lr-tb;text-anchor:start;baseline-shift:baseline;color:#000;fill:#0a4;fill-opacity:1;stroke:none;stroke-width:29.74740791;marker:none;visibility:visible;display:inline;overflow:visible;enable-background:accumulate;font-family:Sans;-inkscape-font-specification:Sans" id="path3941-4-3" d="m 414.85227,91.888461 0,33.543129 c 40.38434,0 72.76349,32.37909 72.76349,72.76349 0,40.38438 -32.37915,72.74861 -72.76349,72.74861 -40.38439,0 -72.7932,-32.36423 -72.7932,-72.74861 l -33.51343,0 c 0,58.51055 47.79605,106.29177 106.30663,106.29177 58.51054,0 106.29176,-47.78122 106.29176,-106.29177 0,-58.51058 -47.78122,-106.306619 -106.29176,-106.306619 z"/><path style="font-size:medium;font-style:normal;font-variant:normal;font-weight:400;font-stretch:normal;text-indent:0;text-align:start;text-decoration:none;line-height:normal;letter-spacing:normal;word-spacing:normal;text-transform:none;direction:ltr;block-progression:tb;writing-mode:lr-tb;text-anchor:start;baseline-shift:baseline;color:#000;fill:#0a4;fill-opacity:1;fill-rule:nonzero;stroke:none;stroke-width:44;marker:none;visibility:visible;display:inline;overflow:visible;enable-background:accumulate;font-family:Sans;-inkscape-font-specification:Sans" id="path3048-0" d="m 353.33546,113.0139 -23.66795,23.64419 73.35638,73.35637 23.64418,-23.66794 -73.33261,-73.33262 z"/></g><g style="fill:#999" id="labstate_wifi" transform="matrix(0.53769528,-0.53769528,0.53769528,0.53769528,936.93926,-206.87601)"><g style="fill:#999" id="g3983" transform="matrix(1.3684047,1.3684047,-1.3684047,1.3684047,-846.17926,-501.41882)"><path id="path3945" d="m 943.59375,141.53125 c -13.79503,17.9303 -22.03125,40.34845 -22.03125,64.65625 0,24.30099 8.21196,46.75341 22,64.6875 L 960.34375,258 c -10.99833,-14.32866 -17.53125,-32.28152 -17.53125,-51.8125 0,-19.51586 6.54572,-37.45243 17.53125,-51.78125 l -16.75,-12.875 z m 24.59375,18.875 c -9.77505,12.70221 -15.625,28.57938 -15.625,45.78125 0,17.20187 5.84994,33.07275 15.625,45.78125 l 16.75,-12.84375 c -6.97772,-9.10665 -11.12501,-20.51308 -11.125,-32.9375 0,-12.43089 4.14068,-23.8348 11.125,-32.9375 l -16.75,-12.84375 z m 24.59375,18.875 c -5.75907,7.47556 -9.21873,16.80644 -9.21875,26.90625 0,10.10233 3.45711,19.45471 9.21875,26.9375 l 16.74995,-12.875 c -2.9642,-3.87462 -4.7187,-8.73765 -4.7187,-14.0625 0,-5.32486 1.7545,-10.18788 4.7187,-14.0625 l -16.74995,-12.84375 z" transform="matrix(0.48051198,0.48051198,-0.48051198,0.48051198,114.91081,-443.71008)" style="font-size:medium;font-style:normal;font-variant:normal;font-weight:400;font-stretch:normal;text-indent:0;text-align:start;text-decoration:none;line-height:normal;letter-spacing:normal;word-spacing:normal;text-transform:none;direction:ltr;block-progression:tb;writing-mode:lr-tb;text-anchor:start;baseline-shift:baseline;color:#000;fill:#999;fill-opacity:1;stroke:none;stroke-width:27.86691666;marker:none;visibility:visible;display:inline;overflow:visible;enable-background:accumulate;font-family:Sans;-inkscape-font-specification:Sans"/><path style="fill:#999;fill-opacity:1;stroke:none" id="path3940" d="m 1423.406,96.339584 c 0,5.857866 -4.7487,10.606596 -10.6066,10.606596 -5.8578,0 -10.6066,-4.74873 -10.6066,-10.606596 0,-5.857863 4.7488,-10.606599 10.6066,-10.606599 5.8579,0 10.6066,4.748736 10.6066,10.606599 z" transform="matrix(0.90805431,0,0,0.90805431,-773.17038,61.783918)"/></g><path style="font-size:medium;font-style:normal;font-variant:normal;font-weight:400;font-stretch:normal;text-indent:0;text-align:start;text-decoration:none;line-height:normal;letter-spacing:normal;word-spacing:normal;text-transform:none;direction:ltr;block-progression:tb;writing-mode:lr-tb;text-anchor:start;baseline-shift:baseline;color:#000;fill:#999;fill-opacity:1;stroke:none;stroke-width:29.74740791;marker:none;visibility:visible;display:inline;overflow:visible;enable-background:accumulate;font-family:Sans;-inkscape-font-specification:Sans" id="path3941-4-1" d="m -253.929,301.64159 -31.19158,31.19158 c 37.55318,37.55318 37.55323,97.77152 0,135.32475 -37.55323,37.55322 -97.75776,37.53936 -135.31094,-0.0138 -37.55323,-37.55326 -37.59468,-97.78537 -0.0415,-135.33859 l -31.16396,-31.16396 c -54.40866,54.40865 -54.39487,143.28544 0.0138,197.69413 54.40863,54.40863 143.27164,54.40863 197.6803,-2e-5 54.40867,-54.40868 54.42246,-143.28546 0.0138,-197.69409 z"/></g><g id="labstate_unknown" transform="translate(273.88491,-6.0742821e-7)"><path style="font-size:medium;font-style:normal;font-variant:normal;font-weight:400;font-stretch:normal;text-indent:0;text-align:start;text-decoration:none;line-height:normal;letter-spacing:normal;word-spacing:normal;text-transform:none;direction:ltr;block-progression:tb;writing-mode:lr-tb;text-anchor:start;baseline-shift:baseline;color:#000;fill:#ffd42a;fill-opacity:1;stroke:none;stroke-width:29.74740791;marker:none;visibility:visible;display:inline;overflow:visible;enable-background:accumulate;font-family:Sans;-inkscape-font-specification:Sans" id="path3941-4-3-6" d="m 414.85227,91.888461 0,33.543129 c 40.38434,0 72.76349,32.37909 72.76349,72.76349 0,40.38438 -32.37915,72.74861 -72.76349,72.74861 -40.38439,0 -72.7932,-32.36423 -72.7932,-72.74861 l -33.51343,0 c 0,58.51055 47.79605,106.29177 106.30663,106.29177 58.51054,0 106.29176,-47.78122 106.29176,-106.29177 0,-58.51058 -47.78122,-106.306619 -106.29176,-106.306619 z"/><path id="path3048-0-9" d="m 1162.25,-213.53125 -23.6875,23.625 29.2187,29.21875 36.0313,20.8125 c 2.0233,-3.49902 4.9385,-6.41421 8.4375,-8.4375 l -20.7812,-36 -29.2188,-29.21875 z" transform="translate(-808.90394,326.55973)" style="font-size:medium;font-style:normal;font-variant:normal;font-weight:400;font-stretch:normal;text-indent:0;text-align:start;text-decoration:none;line-height:normal;letter-spacing:normal;word-spacing:normal;text-transform:none;direction:ltr;block-progression:tb;writing-mode:lr-tb;text-anchor:start;baseline-shift:baseline;color:#000;fill:#ffd42a;fill-opacity:1;fill-rule:nonzero;stroke:none;stroke-width:44;marker:none;visibility:visible;display:inline;overflow:visible;enable-background:accumulate;font-family:Sans;-inkscape-font-specification:Sans"/><g id="g3983-6-8" transform="matrix(1.4715695,0,0,1.4715695,-335.2557,-21.466891)" style="fill:#ffd42a"><path id="path3940-1-1" d="m 1423.406,96.339584 c 0,5.857866 -4.7487,10.606596 -10.6066,10.606596 -5.8578,0 -10.6066,-4.74873 -10.6066,-10.606596 0,-5.857863 4.7488,-10.606599 10.6066,-10.606599 5.8579,0 10.6066,4.748736 10.6066,10.606599 z" transform="matrix(0.90805431,0,0,0.90805431,-773.17038,61.783918)" style="fill:#ffd42a;fill-opacity:1;stroke:none"/></g></g></g></svg>